<mxfile host="65bd71144e">
    <diagram id="3Skp6u5j8QHeCOQ26xEV" name="Page-1">
        <mxGraphModel dx="1707" dy="1222" grid="1" gridSize="10" guides="1" tooltips="1" connect="1" arrows="1" fold="1" page="1" pageScale="1" pageWidth="3300" pageHeight="4681" math="0" shadow="0">
            <root>
                <mxCell id="0"/>
                <mxCell id="1" parent="0"/>
                <mxCell id="7" value="yes" style="text;html=1;strokeColor=none;fillColor=none;align=center;verticalAlign=middle;whiteSpace=wrap;rounded=0;" parent="1" vertex="1">
                    <mxGeometry x="410" y="400" width="60" height="30" as="geometry"/>
                </mxCell>
                <mxCell id="10" value="no" style="text;html=1;strokeColor=none;fillColor=none;align=center;verticalAlign=middle;whiteSpace=wrap;rounded=0;" parent="1" vertex="1">
                    <mxGeometry x="450" y="270" width="60" height="30" as="geometry"/>
                </mxCell>
                <mxCell id="57" style="edgeStyle=none;html=1;" parent="1" source="56" edge="1">
                    <mxGeometry relative="1" as="geometry">
                        <mxPoint x="370" y="310" as="targetPoint"/>
                    </mxGeometry>
                </mxCell>
                <mxCell id="79" style="edgeStyle=none;html=1;entryX=0;entryY=0.5;entryDx=0;entryDy=0;" parent="1" target="56" edge="1">
                    <mxGeometry relative="1" as="geometry">
                        <mxPoint x="100" y="290" as="targetPoint"/>
                        <mxPoint x="90" y="310" as="sourcePoint"/>
                    </mxGeometry>
                </mxCell>
                <mxCell id="56" value="validate_args()&lt;br&gt;loop over argv and skip argv[0]" style="rounded=0;whiteSpace=wrap;html=1;" parent="1" vertex="1">
                    <mxGeometry x="160" y="280" width="120" height="60" as="geometry"/>
                </mxCell>
                <mxCell id="58" value="argv[i]" style="text;html=1;strokeColor=none;fillColor=none;align=center;verticalAlign=middle;whiteSpace=wrap;rounded=0;" parent="1" vertex="1">
                    <mxGeometry x="300" y="270" width="60" height="30" as="geometry"/>
                </mxCell>
                <mxCell id="60" style="edgeStyle=none;html=1;entryX=0;entryY=0.5;entryDx=0;entryDy=0;" parent="1" source="59" target="84" edge="1">
                    <mxGeometry relative="1" as="geometry">
                        <mxPoint x="590" y="310" as="targetPoint"/>
                    </mxGeometry>
                </mxCell>
                <mxCell id="61" style="edgeStyle=none;html=1;" parent="1" source="59" edge="1">
                    <mxGeometry relative="1" as="geometry">
                        <mxPoint x="410" y="460" as="targetPoint"/>
                    </mxGeometry>
                </mxCell>
                <mxCell id="59" value="has space" style="rhombus;whiteSpace=wrap;html=1;" parent="1" vertex="1">
                    <mxGeometry x="370" y="270" width="80" height="80" as="geometry"/>
                </mxCell>
                <mxCell id="179" style="edgeStyle=none;html=1;" parent="1" source="62" edge="1">
                    <mxGeometry relative="1" as="geometry">
                        <mxPoint x="540" y="500" as="targetPoint"/>
                    </mxGeometry>
                </mxCell>
                <mxCell id="62" value="split the string with space as delemiter and return a double pointer to a consecutive block of memory whose values are strings --&amp;gt; (1)" style="rounded=0;whiteSpace=wrap;html=1;" parent="1" vertex="1">
                    <mxGeometry x="330" y="460.25" width="170" height="79.5" as="geometry"/>
                </mxCell>
                <mxCell id="80" value="argv" style="text;html=1;strokeColor=none;fillColor=none;align=center;verticalAlign=middle;whiteSpace=wrap;rounded=0;" parent="1" vertex="1">
                    <mxGeometry x="80" y="270" width="60" height="30" as="geometry"/>
                </mxCell>
                <mxCell id="83" style="edgeStyle=none;html=1;" parent="1" source="84" edge="1">
                    <mxGeometry relative="1" as="geometry">
                        <mxPoint x="815" y="462.5" as="targetPoint"/>
                    </mxGeometry>
                </mxCell>
                <mxCell id="91" style="edgeStyle=none;html=1;" parent="1" source="84" edge="1">
                    <mxGeometry relative="1" as="geometry">
                        <mxPoint x="1070" y="310" as="targetPoint"/>
                    </mxGeometry>
                </mxCell>
                <mxCell id="84" value="if +/-" style="rhombus;whiteSpace=wrap;html=1;" parent="1" vertex="1">
                    <mxGeometry x="775" y="270" width="79.5" height="80" as="geometry"/>
                </mxCell>
                <mxCell id="85" value="no" style="text;html=1;strokeColor=none;fillColor=none;align=center;verticalAlign=middle;whiteSpace=wrap;rounded=0;" parent="1" vertex="1">
                    <mxGeometry x="855" y="280" width="60" height="30" as="geometry"/>
                </mxCell>
                <mxCell id="86" value="yes" style="text;html=1;strokeColor=none;fillColor=none;align=center;verticalAlign=middle;whiteSpace=wrap;rounded=0;" parent="1" vertex="1">
                    <mxGeometry x="810" y="400" width="60" height="30" as="geometry"/>
                </mxCell>
                <mxCell id="87" style="edgeStyle=none;html=1;" parent="1" source="88" edge="1">
                    <mxGeometry relative="1" as="geometry">
                        <mxPoint x="915" y="312.5" as="targetPoint"/>
                        <Array as="points">
                            <mxPoint x="915" y="492.5"/>
                        </Array>
                    </mxGeometry>
                </mxCell>
                <mxCell id="88" value="skip character + / -" style="rounded=0;whiteSpace=wrap;html=1;" parent="1" vertex="1">
                    <mxGeometry x="755" y="460.5" width="120" height="60" as="geometry"/>
                </mxCell>
                <mxCell id="90" value="argv[i] / split_result[i]" style="text;html=1;strokeColor=none;fillColor=none;align=center;verticalAlign=middle;whiteSpace=wrap;rounded=0;" parent="1" vertex="1">
                    <mxGeometry x="635" y="270" width="120" height="30" as="geometry"/>
                </mxCell>
                <mxCell id="94" style="edgeStyle=none;html=1;" parent="1" source="92" edge="1">
                    <mxGeometry relative="1" as="geometry">
                        <mxPoint x="1290" y="310" as="targetPoint"/>
                    </mxGeometry>
                </mxCell>
                <mxCell id="92" value="loop over&amp;nbsp;&lt;br&gt;argv [i] /&amp;nbsp;split [i]" style="rounded=0;whiteSpace=wrap;html=1;" parent="1" vertex="1">
                    <mxGeometry x="1070" y="280" width="120" height="60" as="geometry"/>
                </mxCell>
                <mxCell id="93" value="argv[i] / split_result[i]" style="text;html=1;strokeColor=none;fillColor=none;align=center;verticalAlign=middle;whiteSpace=wrap;rounded=0;" parent="1" vertex="1">
                    <mxGeometry x="930" y="270" width="150" height="30" as="geometry"/>
                </mxCell>
                <mxCell id="97" style="edgeStyle=none;html=1;" parent="1" source="95" edge="1">
                    <mxGeometry relative="1" as="geometry">
                        <mxPoint x="1450" y="310" as="targetPoint"/>
                    </mxGeometry>
                </mxCell>
                <mxCell id="100" style="edgeStyle=none;html=1;" parent="1" source="95" edge="1">
                    <mxGeometry relative="1" as="geometry">
                        <mxPoint x="1330" y="460" as="targetPoint"/>
                    </mxGeometry>
                </mxCell>
                <mxCell id="95" value="is char c&lt;br&gt;digit" style="rhombus;whiteSpace=wrap;html=1;" parent="1" vertex="1">
                    <mxGeometry x="1290" y="270" width="80" height="80" as="geometry"/>
                </mxCell>
                <mxCell id="96" value="char c" style="text;html=1;strokeColor=none;fillColor=none;align=center;verticalAlign=middle;whiteSpace=wrap;rounded=0;" parent="1" vertex="1">
                    <mxGeometry x="1220" y="270" width="60" height="30" as="geometry"/>
                </mxCell>
                <mxCell id="98" value="no" style="text;html=1;strokeColor=none;fillColor=none;align=center;verticalAlign=middle;whiteSpace=wrap;rounded=0;" parent="1" vertex="1">
                    <mxGeometry x="1370" y="270" width="60" height="30" as="geometry"/>
                </mxCell>
                <mxCell id="99" value="Error" style="shape=parallelogram;perimeter=parallelogramPerimeter;whiteSpace=wrap;html=1;fixedSize=1;" parent="1" vertex="1">
                    <mxGeometry x="1440" y="280" width="120" height="60" as="geometry"/>
                </mxCell>
                <mxCell id="101" value="yes" style="text;html=1;strokeColor=none;fillColor=none;align=center;verticalAlign=middle;whiteSpace=wrap;rounded=0;" parent="1" vertex="1">
                    <mxGeometry x="1270" y="400" width="60" height="30" as="geometry"/>
                </mxCell>
                <mxCell id="102" value="" style="edgeStyle=none;html=1;exitX=0;exitY=0.5;exitDx=0;exitDy=0;" parent="1" source="103" edge="1">
                    <mxGeometry relative="1" as="geometry">
                        <mxPoint x="1140.5" y="859" as="targetPoint"/>
                    </mxGeometry>
                </mxCell>
                <mxCell id="110" style="edgeStyle=none;html=1;" parent="1" source="103" edge="1">
                    <mxGeometry relative="1" as="geometry">
                        <mxPoint x="1450.5" y="859" as="targetPoint"/>
                    </mxGeometry>
                </mxCell>
                <mxCell id="103" value="&amp;gt; max_int&lt;br&gt;or&lt;br&gt;&amp;lt; min_int" style="rhombus;whiteSpace=wrap;html=1;" parent="1" vertex="1">
                    <mxGeometry x="1280" y="809" width="100" height="100" as="geometry"/>
                </mxCell>
                <mxCell id="105" value="yes" style="text;html=1;strokeColor=none;fillColor=none;align=center;verticalAlign=middle;whiteSpace=wrap;rounded=0;" parent="1" vertex="1">
                    <mxGeometry x="1380.5" y="819" width="60" height="30" as="geometry"/>
                </mxCell>
                <mxCell id="109" style="edgeStyle=none;html=1;" parent="1" source="106" edge="1">
                    <mxGeometry relative="1" as="geometry">
                        <mxPoint x="1330" y="810" as="targetPoint"/>
                    </mxGeometry>
                </mxCell>
                <mxCell id="106" value="convert to a long int" style="rounded=0;whiteSpace=wrap;html=1;" parent="1" vertex="1">
                    <mxGeometry x="1270" y="620" width="120" height="60" as="geometry"/>
                </mxCell>
                <mxCell id="107" value="a string whose all characters are digit" style="text;html=1;strokeColor=none;fillColor=none;align=center;verticalAlign=middle;whiteSpace=wrap;rounded=0;" parent="1" vertex="1">
                    <mxGeometry x="1340" y="570" width="120" height="30" as="geometry"/>
                </mxCell>
                <mxCell id="111" value="Error" style="shape=parallelogram;perimeter=parallelogramPerimeter;whiteSpace=wrap;html=1;fixedSize=1;" parent="1" vertex="1">
                    <mxGeometry x="1440.5" y="829" width="120" height="60" as="geometry"/>
                </mxCell>
                <mxCell id="112" value="no" style="text;html=1;strokeColor=none;fillColor=none;align=center;verticalAlign=middle;whiteSpace=wrap;rounded=0;" parent="1" vertex="1">
                    <mxGeometry x="1210" y="819" width="60" height="30" as="geometry"/>
                </mxCell>
                <mxCell id="113" value="long int" style="text;html=1;strokeColor=none;fillColor=none;align=center;verticalAlign=middle;whiteSpace=wrap;rounded=0;" parent="1" vertex="1">
                    <mxGeometry x="1340" y="725.5" width="60" height="30" as="geometry"/>
                </mxCell>
                <mxCell id="114" style="edgeStyle=none;html=1;entryX=1;entryY=0.5;entryDx=0;entryDy=0;" parent="1" source="115" target="117" edge="1">
                    <mxGeometry relative="1" as="geometry">
                        <mxPoint x="1086" y="1012.5" as="targetPoint"/>
                    </mxGeometry>
                </mxCell>
                <mxCell id="121" style="edgeStyle=none;html=1;entryX=0.5;entryY=0;entryDx=0;entryDy=0;" parent="1" source="115" target="119" edge="1">
                    <mxGeometry relative="1" as="geometry"/>
                </mxCell>
                <mxCell id="115" value="list is empty&lt;br&gt;(first int)" style="rhombus;whiteSpace=wrap;html=1;" parent="1" vertex="1">
                    <mxGeometry x="1031" y="809" width="110" height="102" as="geometry"/>
                </mxCell>
                <mxCell id="116" value="yes" style="text;html=1;strokeColor=none;fillColor=none;align=center;verticalAlign=middle;whiteSpace=wrap;rounded=0;" parent="1" vertex="1">
                    <mxGeometry x="960" y="819" width="60" height="30" as="geometry"/>
                </mxCell>
                <mxCell id="123" style="edgeStyle=none;html=1;entryX=1;entryY=0.5;entryDx=0;entryDy=0;" parent="1" source="117" target="130" edge="1">
                    <mxGeometry relative="1" as="geometry">
                        <mxPoint x="781" y="859" as="targetPoint"/>
                    </mxGeometry>
                </mxCell>
                <mxCell id="117" value="create the first node and&amp;nbsp;put the int as its content" style="rounded=0;whiteSpace=wrap;html=1;" parent="1" vertex="1">
                    <mxGeometry x="815.5" y="829" width="120" height="60" as="geometry"/>
                </mxCell>
                <mxCell id="122" style="edgeStyle=none;html=1;" parent="1" source="119" edge="1">
                    <mxGeometry relative="1" as="geometry">
                        <mxPoint x="700" y="859" as="targetPoint"/>
                        <Array as="points">
                            <mxPoint x="700" y="1000"/>
                        </Array>
                    </mxGeometry>
                </mxCell>
                <mxCell id="119" value="add a node as the last node of the list and put the int as its content" style="rounded=0;whiteSpace=wrap;html=1;" parent="1" vertex="1">
                    <mxGeometry x="1026" y="969" width="120" height="60" as="geometry"/>
                </mxCell>
                <mxCell id="120" value="no" style="text;html=1;strokeColor=none;fillColor=none;align=center;verticalAlign=middle;whiteSpace=wrap;rounded=0;" parent="1" vertex="1">
                    <mxGeometry x="1031" y="929" width="60" height="30" as="geometry"/>
                </mxCell>
                <mxCell id="126" style="edgeStyle=none;html=1;entryX=0.5;entryY=1;entryDx=0;entryDy=0;" parent="1" source="125" target="92" edge="1">
                    <mxGeometry relative="1" as="geometry">
                        <mxPoint x="1130" y="440" as="targetPoint"/>
                        <Array as="points">
                            <mxPoint x="1130" y="500"/>
                        </Array>
                    </mxGeometry>
                </mxCell>
                <mxCell id="128" style="edgeStyle=none;html=1;entryX=0.5;entryY=0;entryDx=0;entryDy=0;" parent="1" source="125" target="106" edge="1">
                    <mxGeometry relative="1" as="geometry"/>
                </mxCell>
                <mxCell id="125" value="all chars&lt;br&gt;checked" style="rhombus;whiteSpace=wrap;html=1;" parent="1" vertex="1">
                    <mxGeometry x="1290" y="460" width="80" height="80" as="geometry"/>
                </mxCell>
                <mxCell id="127" value="no" style="text;html=1;strokeColor=none;fillColor=none;align=center;verticalAlign=middle;whiteSpace=wrap;rounded=0;" parent="1" vertex="1">
                    <mxGeometry x="1210" y="460.5" width="60" height="30" as="geometry"/>
                </mxCell>
                <mxCell id="129" value="yes" style="text;html=1;strokeColor=none;fillColor=none;align=center;verticalAlign=middle;whiteSpace=wrap;rounded=0;" parent="1" vertex="1">
                    <mxGeometry x="1270" y="540" width="60" height="30" as="geometry"/>
                </mxCell>
                <mxCell id="131" style="edgeStyle=none;html=1;entryX=0.5;entryY=1;entryDx=0;entryDy=0;exitX=0;exitY=0.5;exitDx=0;exitDy=0;startArrow=none;" parent="1" source="155" target="56" edge="1">
                    <mxGeometry relative="1" as="geometry">
                        <mxPoint x="200" y="540" as="targetPoint"/>
                        <Array as="points">
                            <mxPoint x="220" y="660"/>
                        </Array>
                        <mxPoint x="560" y="790" as="sourcePoint"/>
                    </mxGeometry>
                </mxCell>
                <mxCell id="137" style="edgeStyle=none;html=1;exitX=0;exitY=0.5;exitDx=0;exitDy=0;entryX=1;entryY=0.5;entryDx=0;entryDy=0;" parent="1" source="130" target="141" edge="1">
                    <mxGeometry relative="1" as="geometry">
                        <mxPoint x="420" y="860" as="targetPoint"/>
                        <mxPoint x="480" y="860" as="sourcePoint"/>
                    </mxGeometry>
                </mxCell>
                <mxCell id="183" style="edgeStyle=none;html=1;entryX=0.5;entryY=1;entryDx=0;entryDy=0;" parent="1" source="130" target="155" edge="1">
                    <mxGeometry relative="1" as="geometry"/>
                </mxCell>
                <mxCell id="130" value="last argv[i] /&lt;br&gt;last split_result[i]" style="rhombus;whiteSpace=wrap;html=1;" parent="1" vertex="1">
                    <mxGeometry x="500" y="799" width="120" height="120" as="geometry"/>
                </mxCell>
                <mxCell id="133" value="no" style="text;html=1;strokeColor=none;fillColor=none;align=center;verticalAlign=middle;whiteSpace=wrap;rounded=0;" parent="1" vertex="1">
                    <mxGeometry x="500" y="725.5" width="60" height="30" as="geometry"/>
                </mxCell>
                <mxCell id="134" value="a single node" style="text;html=1;strokeColor=none;fillColor=none;align=center;verticalAlign=middle;whiteSpace=wrap;rounded=0;" parent="1" vertex="1">
                    <mxGeometry x="910" y="959" width="85" height="30" as="geometry"/>
                </mxCell>
                <mxCell id="135" value="a single node" style="text;html=1;strokeColor=none;fillColor=none;align=center;verticalAlign=middle;whiteSpace=wrap;rounded=0;" parent="1" vertex="1">
                    <mxGeometry x="720" y="819" width="85" height="30" as="geometry"/>
                </mxCell>
                <mxCell id="136" value="linked list" style="text;html=1;strokeColor=none;fillColor=none;align=center;verticalAlign=middle;whiteSpace=wrap;rounded=0;" parent="1" vertex="1">
                    <mxGeometry x="630" y="819" width="60" height="30" as="geometry"/>
                </mxCell>
                <mxCell id="138" value="yes" style="text;html=1;strokeColor=none;fillColor=none;align=center;verticalAlign=middle;whiteSpace=wrap;rounded=0;" parent="1" vertex="1">
                    <mxGeometry x="440" y="820" width="60" height="30" as="geometry"/>
                </mxCell>
                <mxCell id="144" style="edgeStyle=none;html=1;exitX=0.5;exitY=1;exitDx=0;exitDy=0;entryX=0.5;entryY=0;entryDx=0;entryDy=0;" parent="1" source="141" target="143" edge="1">
                    <mxGeometry relative="1" as="geometry"/>
                </mxCell>
                <mxCell id="147" style="edgeStyle=none;html=1;" parent="1" source="141" edge="1">
                    <mxGeometry relative="1" as="geometry">
                        <mxPoint x="200" y="860" as="targetPoint"/>
                    </mxGeometry>
                </mxCell>
                <mxCell id="141" value="is there&lt;br&gt;duplication" style="rhombus;whiteSpace=wrap;html=1;" parent="1" vertex="1">
                    <mxGeometry x="288.5" y="815" width="90" height="90" as="geometry"/>
                </mxCell>
                <mxCell id="142" value="linked list" style="text;html=1;strokeColor=none;fillColor=none;align=center;verticalAlign=middle;whiteSpace=wrap;rounded=0;" parent="1" vertex="1">
                    <mxGeometry x="380" y="870" width="60" height="30" as="geometry"/>
                </mxCell>
                <mxCell id="143" value="Error" style="shape=parallelogram;perimeter=parallelogramPerimeter;whiteSpace=wrap;html=1;fixedSize=1;" parent="1" vertex="1">
                    <mxGeometry x="273.5" y="969" width="120" height="60" as="geometry"/>
                </mxCell>
                <mxCell id="145" value="yes" style="text;html=1;strokeColor=none;fillColor=none;align=center;verticalAlign=middle;whiteSpace=wrap;rounded=0;" parent="1" vertex="1">
                    <mxGeometry x="330" y="929" width="60" height="30" as="geometry"/>
                </mxCell>
                <mxCell id="146" value="no" style="text;html=1;strokeColor=none;fillColor=none;align=center;verticalAlign=middle;whiteSpace=wrap;rounded=0;" parent="1" vertex="1">
                    <mxGeometry x="228.5" y="829" width="60" height="30" as="geometry"/>
                </mxCell>
                <mxCell id="150" value="all inputs are&amp;nbsp;&lt;br&gt;valid" style="shape=parallelogram;perimeter=parallelogramPerimeter;whiteSpace=wrap;html=1;fixedSize=1;" parent="1" vertex="1">
                    <mxGeometry x="90" y="829" width="120" height="60" as="geometry"/>
                </mxCell>
                <mxCell id="156" style="edgeStyle=none;html=1;entryX=0.5;entryY=1;entryDx=0;entryDy=0;exitX=0.5;exitY=0;exitDx=0;exitDy=0;" parent="1" source="155" target="180" edge="1">
                    <mxGeometry relative="1" as="geometry">
                        <mxPoint x="560" y="560" as="targetPoint"/>
                        <Array as="points">
                            <mxPoint x="560" y="580"/>
                            <mxPoint x="600" y="580"/>
                        </Array>
                    </mxGeometry>
                </mxCell>
                <mxCell id="155" value="was it&lt;br&gt;split_result[i]" style="rhombus;whiteSpace=wrap;html=1;" parent="1" vertex="1">
                    <mxGeometry x="510" y="610" width="100" height="100" as="geometry"/>
                </mxCell>
                <mxCell id="159" value="no" style="text;html=1;strokeColor=none;fillColor=none;align=center;verticalAlign=middle;whiteSpace=wrap;rounded=0;" parent="1" vertex="1">
                    <mxGeometry x="280" y="620" width="60" height="30" as="geometry"/>
                </mxCell>
                <mxCell id="160" value="yes" style="text;html=1;strokeColor=none;fillColor=none;align=center;verticalAlign=middle;whiteSpace=wrap;rounded=0;" parent="1" vertex="1">
                    <mxGeometry x="507.5" y="580" width="45" height="20" as="geometry"/>
                </mxCell>
                <mxCell id="181" style="edgeStyle=none;html=1;" parent="1" source="180" edge="1">
                    <mxGeometry relative="1" as="geometry">
                        <mxPoint x="600" y="310" as="targetPoint"/>
                    </mxGeometry>
                </mxCell>
                <mxCell id="180" value="loop over split_result" style="rounded=0;whiteSpace=wrap;html=1;" parent="1" vertex="1">
                    <mxGeometry x="540" y="470" width="120" height="60" as="geometry"/>
                </mxCell>
                <mxCell id="182" value="split_result[i]" style="text;html=1;strokeColor=none;fillColor=none;align=center;verticalAlign=middle;whiteSpace=wrap;rounded=0;" parent="1" vertex="1">
                    <mxGeometry x="530" y="400" width="60" height="30" as="geometry"/>
                </mxCell>
                <mxCell id="184" value="argv (an array of strings)" style="text;html=1;strokeColor=none;fillColor=none;align=center;verticalAlign=middle;whiteSpace=wrap;rounded=0;" parent="1" vertex="1">
                    <mxGeometry x="100" y="1306.25" width="95" height="42.5" as="geometry"/>
                </mxCell>
                <mxCell id="185" value="" style="endArrow=classic;html=1;" parent="1" edge="1">
                    <mxGeometry width="50" height="50" relative="1" as="geometry">
                        <mxPoint x="200" y="1327.5" as="sourcePoint"/>
                        <mxPoint x="280" y="1327.5" as="targetPoint"/>
                    </mxGeometry>
                </mxCell>
                <mxCell id="186" value="loop, if &lt;br&gt;argv [ i ] includes space" style="rhombus;whiteSpace=wrap;html=1;" parent="1" vertex="1">
                    <mxGeometry x="278.5" y="1272.5" width="110" height="110" as="geometry"/>
                </mxCell>
                <mxCell id="187" value="" style="endArrow=classic;html=1;exitX=1;exitY=0.5;exitDx=0;exitDy=0;" parent="1" source="186" edge="1">
                    <mxGeometry width="50" height="50" relative="1" as="geometry">
                        <mxPoint x="390" y="1327.5" as="sourcePoint"/>
                        <mxPoint x="550" y="1328" as="targetPoint"/>
                    </mxGeometry>
                </mxCell>
                <mxCell id="188" value="" style="endArrow=classic;html=1;exitX=0.5;exitY=1;exitDx=0;exitDy=0;entryX=0.5;entryY=0;entryDx=0;entryDy=0;" parent="1" source="186" target="191" edge="1">
                    <mxGeometry width="50" height="50" relative="1" as="geometry">
                        <mxPoint x="333" y="1387.5" as="sourcePoint"/>
                        <mxPoint x="333" y="1457.5" as="targetPoint"/>
                        <Array as="points">
                            <mxPoint x="333" y="1407.5"/>
                        </Array>
                    </mxGeometry>
                </mxCell>
                <mxCell id="189" value="yes" style="text;html=1;strokeColor=none;fillColor=none;align=center;verticalAlign=middle;whiteSpace=wrap;rounded=0;" parent="1" vertex="1">
                    <mxGeometry x="325" y="1417.5" width="60" height="30" as="geometry"/>
                </mxCell>
                <mxCell id="190" style="edgeStyle=none;html=1;" parent="1" source="191" edge="1">
                    <mxGeometry relative="1" as="geometry">
                        <mxPoint x="470" y="1327.5" as="targetPoint"/>
                        <Array as="points">
                            <mxPoint x="470" y="1507.5"/>
                        </Array>
                    </mxGeometry>
                </mxCell>
                <mxCell id="191" value="split" style="rounded=0;whiteSpace=wrap;html=1;" parent="1" vertex="1">
                    <mxGeometry x="273.5" y="1477.5" width="120" height="60" as="geometry"/>
                </mxCell>
                <mxCell id="192" value="no" style="text;html=1;strokeColor=none;fillColor=none;align=center;verticalAlign=middle;whiteSpace=wrap;rounded=0;" parent="1" vertex="1">
                    <mxGeometry x="393.5" y="1287.5" width="60" height="30" as="geometry"/>
                </mxCell>
                <mxCell id="193" style="edgeStyle=none;html=1;exitX=0.5;exitY=1;exitDx=0;exitDy=0;" parent="1" source="194" edge="1">
                    <mxGeometry relative="1" as="geometry">
                        <mxPoint x="1020.5" y="1477.5" as="targetPoint"/>
                    </mxGeometry>
                </mxCell>
                <mxCell id="194" value="loop over&amp;nbsp;argv [ i ] &lt;br&gt;or split [ i ]&amp;nbsp;to see if&amp;nbsp;&amp;nbsp;&lt;br&gt;is_digit() is 0 for&lt;br&gt;a&amp;nbsp;character" style="rhombus;whiteSpace=wrap;html=1;" parent="1" vertex="1">
                    <mxGeometry x="940" y="1250" width="160" height="155" as="geometry"/>
                </mxCell>
                <mxCell id="195" value="" style="endArrow=classic;html=1;exitX=1;exitY=0.5;exitDx=0;exitDy=0;entryX=0;entryY=0.5;entryDx=0;entryDy=0;" parent="1" source="194" target="239" edge="1">
                    <mxGeometry width="50" height="50" relative="1" as="geometry">
                        <mxPoint x="1025.5" y="1327.5" as="sourcePoint"/>
                        <mxPoint x="1185.5" y="1327.5" as="targetPoint"/>
                    </mxGeometry>
                </mxCell>
                <mxCell id="196" value="split [ i ]" style="text;html=1;strokeColor=none;fillColor=none;align=center;verticalAlign=middle;whiteSpace=wrap;rounded=0;" parent="1" vertex="1">
                    <mxGeometry x="408.5" y="1417.5" width="60" height="30" as="geometry"/>
                </mxCell>
                <mxCell id="197" value="" style="edgeStyle=none;html=1;entryX=0.5;entryY=0;entryDx=0;entryDy=0;" parent="1" source="199" target="200" edge="1">
                    <mxGeometry relative="1" as="geometry">
                        <mxPoint x="1425.5" y="1437" as="targetPoint"/>
                    </mxGeometry>
                </mxCell>
                <mxCell id="198" style="edgeStyle=none;html=1;entryX=0;entryY=0.5;entryDx=0;entryDy=0;" parent="1" source="199" edge="1">
                    <mxGeometry relative="1" as="geometry">
                        <mxPoint x="1574.5" y="1327" as="targetPoint"/>
                    </mxGeometry>
                </mxCell>
                <mxCell id="199" value="&amp;gt; max_int&lt;br&gt;or&lt;br&gt;&amp;lt; min_int" style="rhombus;whiteSpace=wrap;html=1;" parent="1" vertex="1">
                    <mxGeometry x="1370" y="1277" width="100" height="100" as="geometry"/>
                </mxCell>
                <mxCell id="200" value="&quot;Error&quot;&lt;br&gt;exit()" style="shape=parallelogram;perimeter=parallelogramPerimeter;whiteSpace=wrap;html=1;fixedSize=1;" parent="1" vertex="1">
                    <mxGeometry x="1360" y="1477" width="120" height="60" as="geometry"/>
                </mxCell>
                <mxCell id="201" value="yes" style="text;html=1;strokeColor=none;fillColor=none;align=center;verticalAlign=middle;whiteSpace=wrap;rounded=0;" parent="1" vertex="1">
                    <mxGeometry x="1420" y="1417" width="60" height="30" as="geometry"/>
                </mxCell>
                <mxCell id="202" value="no" style="text;html=1;strokeColor=none;fillColor=none;align=center;verticalAlign=middle;whiteSpace=wrap;rounded=0;" parent="1" vertex="1">
                    <mxGeometry x="1480" y="1287" width="60" height="30" as="geometry"/>
                </mxCell>
                <mxCell id="203" value="yes" style="text;html=1;strokeColor=none;fillColor=none;align=center;verticalAlign=middle;whiteSpace=wrap;rounded=0;" parent="1" vertex="1">
                    <mxGeometry x="1020" y="1417.5" width="60" height="30" as="geometry"/>
                </mxCell>
                <mxCell id="204" value="&quot;Error&quot;&lt;br&gt;exit()" style="shape=parallelogram;perimeter=parallelogramPerimeter;whiteSpace=wrap;html=1;fixedSize=1;" parent="1" vertex="1">
                    <mxGeometry x="960" y="1477.5" width="120" height="60" as="geometry"/>
                </mxCell>
                <mxCell id="205" value="no" style="text;html=1;strokeColor=none;fillColor=none;align=center;verticalAlign=middle;whiteSpace=wrap;rounded=0;" parent="1" vertex="1">
                    <mxGeometry x="1110.5" y="1287.5" width="60" height="30" as="geometry"/>
                </mxCell>
                <mxCell id="206" value="" style="endArrow=classic;html=1;" parent="1" edge="1">
                    <mxGeometry width="50" height="50" relative="1" as="geometry">
                        <mxPoint x="2114.5" y="1326.5" as="sourcePoint"/>
                        <mxPoint x="2194.5" y="1326.5" as="targetPoint"/>
                    </mxGeometry>
                </mxCell>
                <mxCell id="207" style="edgeStyle=none;html=1;exitX=0.5;exitY=1;exitDx=0;exitDy=0;entryX=0.5;entryY=0;entryDx=0;entryDy=0;" parent="1" source="208" target="210" edge="1">
                    <mxGeometry relative="1" as="geometry">
                        <mxPoint x="2024.5" y="1437" as="targetPoint"/>
                    </mxGeometry>
                </mxCell>
                <mxCell id="208" value="loop over the&lt;br&gt;list to&amp;nbsp;see if there is&amp;nbsp;&lt;br&gt;duplication" style="rhombus;whiteSpace=wrap;html=1;" parent="1" vertex="1">
                    <mxGeometry x="1984.5" y="1270.13" width="130" height="113.75" as="geometry"/>
                </mxCell>
                <mxCell id="209" value="yes" style="text;html=1;strokeColor=none;fillColor=none;align=center;verticalAlign=middle;whiteSpace=wrap;rounded=0;" parent="1" vertex="1">
                    <mxGeometry x="2054.5" y="1417" width="60" height="30" as="geometry"/>
                </mxCell>
                <mxCell id="210" value="&quot;Error&quot;&lt;br&gt;exit()" style="shape=parallelogram;perimeter=parallelogramPerimeter;whiteSpace=wrap;html=1;fixedSize=1;" parent="1" vertex="1">
                    <mxGeometry x="1989.5" y="1477" width="120" height="60" as="geometry"/>
                </mxCell>
                <mxCell id="211" value="no" style="text;html=1;strokeColor=none;fillColor=none;align=center;verticalAlign=middle;whiteSpace=wrap;rounded=0;" parent="1" vertex="1">
                    <mxGeometry x="2114.5" y="1287" width="60" height="30" as="geometry"/>
                </mxCell>
                <mxCell id="212" value="all inputs are&amp;nbsp;&lt;br&gt;valid" style="shape=parallelogram;perimeter=parallelogramPerimeter;whiteSpace=wrap;html=1;fixedSize=1;" parent="1" vertex="1">
                    <mxGeometry x="2184.5" y="1297" width="120" height="60" as="geometry"/>
                </mxCell>
                <mxCell id="213" value="loop over an array of strings" style="text;html=1;strokeColor=none;fillColor=none;align=center;verticalAlign=middle;whiteSpace=wrap;rounded=0;" parent="1" vertex="1">
                    <mxGeometry x="258.5" y="1220" width="150" height="40" as="geometry"/>
                </mxCell>
                <mxCell id="214" value="loop over a string" style="text;html=1;strokeColor=none;fillColor=none;align=center;verticalAlign=middle;whiteSpace=wrap;rounded=0;" parent="1" vertex="1">
                    <mxGeometry x="945" y="1210" width="150" height="40" as="geometry"/>
                </mxCell>
                <mxCell id="215" value="" style="edgeStyle=none;html=1;" parent="1" source="217" edge="1">
                    <mxGeometry relative="1" as="geometry">
                        <mxPoint x="760" y="1328" as="targetPoint"/>
                    </mxGeometry>
                </mxCell>
                <mxCell id="216" style="edgeStyle=none;html=1;" parent="1" source="217" edge="1">
                    <mxGeometry relative="1" as="geometry">
                        <mxPoint x="590" y="1480" as="targetPoint"/>
                    </mxGeometry>
                </mxCell>
                <mxCell id="217" value="if +/-" style="rhombus;whiteSpace=wrap;html=1;" parent="1" vertex="1">
                    <mxGeometry x="550" y="1287.5" width="80" height="80" as="geometry"/>
                </mxCell>
                <mxCell id="218" value="no" style="text;html=1;strokeColor=none;fillColor=none;align=center;verticalAlign=middle;whiteSpace=wrap;rounded=0;" parent="1" vertex="1">
                    <mxGeometry x="630" y="1287.5" width="60" height="30" as="geometry"/>
                </mxCell>
                <mxCell id="219" value="yes" style="text;html=1;strokeColor=none;fillColor=none;align=center;verticalAlign=middle;whiteSpace=wrap;rounded=0;" parent="1" vertex="1">
                    <mxGeometry x="590" y="1417.5" width="60" height="30" as="geometry"/>
                </mxCell>
                <mxCell id="220" style="edgeStyle=none;html=1;" parent="1" source="221" edge="1">
                    <mxGeometry relative="1" as="geometry">
                        <mxPoint x="690" y="1330" as="targetPoint"/>
                        <Array as="points">
                            <mxPoint x="690" y="1510"/>
                        </Array>
                    </mxGeometry>
                </mxCell>
                <mxCell id="221" value="raise the flage" style="rounded=0;whiteSpace=wrap;html=1;" parent="1" vertex="1">
                    <mxGeometry x="530" y="1478" width="120" height="60" as="geometry"/>
                </mxCell>
                <mxCell id="222" value="" style="edgeStyle=none;html=1;" parent="1" source="224" target="226" edge="1">
                    <mxGeometry relative="1" as="geometry"/>
                </mxCell>
                <mxCell id="223" style="edgeStyle=none;html=1;" parent="1" source="224" edge="1">
                    <mxGeometry relative="1" as="geometry">
                        <mxPoint x="1629.5" y="1479.5" as="targetPoint"/>
                    </mxGeometry>
                </mxCell>
                <mxCell id="224" value="list is empty&lt;br&gt;(first int)" style="rhombus;whiteSpace=wrap;html=1;" parent="1" vertex="1">
                    <mxGeometry x="1574.5" y="1276" width="110" height="102" as="geometry"/>
                </mxCell>
                <mxCell id="225" style="edgeStyle=none;html=1;" parent="1" source="226" edge="1">
                    <mxGeometry relative="1" as="geometry">
                        <mxPoint x="1984.5" y="1327" as="targetPoint"/>
                    </mxGeometry>
                </mxCell>
                <mxCell id="226" value="add a node as the last node of the list and put the int as its content" style="rounded=0;whiteSpace=wrap;html=1;" parent="1" vertex="1">
                    <mxGeometry x="1779.5" y="1297" width="120" height="60" as="geometry"/>
                </mxCell>
                <mxCell id="227" value="no" style="text;html=1;strokeColor=none;fillColor=none;align=center;verticalAlign=middle;whiteSpace=wrap;rounded=0;" parent="1" vertex="1">
                    <mxGeometry x="1694.5" y="1287" width="60" height="30" as="geometry"/>
                </mxCell>
                <mxCell id="228" value="yes" style="text;html=1;strokeColor=none;fillColor=none;align=center;verticalAlign=middle;whiteSpace=wrap;rounded=0;" parent="1" vertex="1">
                    <mxGeometry x="1634.5" y="1417" width="60" height="30" as="geometry"/>
                </mxCell>
                <mxCell id="229" style="edgeStyle=none;html=1;" parent="1" source="230" edge="1">
                    <mxGeometry relative="1" as="geometry">
                        <mxPoint x="1954.5" y="1329.5" as="targetPoint"/>
                        <Array as="points">
                            <mxPoint x="1954.5" y="1507.5"/>
                        </Array>
                    </mxGeometry>
                </mxCell>
                <mxCell id="230" value="create the first node and&amp;nbsp;put the int as its content" style="rounded=0;whiteSpace=wrap;html=1;" parent="1" vertex="1">
                    <mxGeometry x="1569.5" y="1477.5" width="120" height="60" as="geometry"/>
                </mxCell>
                <mxCell id="231" style="edgeStyle=none;html=1;" parent="1" source="233" edge="1">
                    <mxGeometry relative="1" as="geometry">
                        <mxPoint x="800" y="1480" as="targetPoint"/>
                    </mxGeometry>
                </mxCell>
                <mxCell id="232" style="edgeStyle=none;html=1;entryX=0;entryY=0.5;entryDx=0;entryDy=0;" parent="1" source="233" target="194" edge="1">
                    <mxGeometry relative="1" as="geometry"/>
                </mxCell>
                <mxCell id="233" value="if flag is&lt;br&gt;raised" style="rhombus;whiteSpace=wrap;html=1;" parent="1" vertex="1">
                    <mxGeometry x="760" y="1288" width="80" height="80" as="geometry"/>
                </mxCell>
                <mxCell id="234" value="yes" style="text;html=1;strokeColor=none;fillColor=none;align=center;verticalAlign=middle;whiteSpace=wrap;rounded=0;" parent="1" vertex="1">
                    <mxGeometry x="810" y="1417.5" width="60" height="30" as="geometry"/>
                </mxCell>
                <mxCell id="235" value="no" style="text;html=1;strokeColor=none;fillColor=none;align=center;verticalAlign=middle;whiteSpace=wrap;rounded=0;" parent="1" vertex="1">
                    <mxGeometry x="850" y="1287.5" width="60" height="30" as="geometry"/>
                </mxCell>
                <mxCell id="236" style="edgeStyle=none;html=1;" parent="1" source="237" edge="1">
                    <mxGeometry relative="1" as="geometry">
                        <mxPoint x="910" y="1330" as="targetPoint"/>
                        <Array as="points">
                            <mxPoint x="910" y="1508"/>
                        </Array>
                    </mxGeometry>
                </mxCell>
                <mxCell id="237" value="skip + / -" style="rounded=0;whiteSpace=wrap;html=1;" parent="1" vertex="1">
                    <mxGeometry x="740" y="1478" width="120" height="60" as="geometry"/>
                </mxCell>
                <mxCell id="238" style="edgeStyle=none;html=1;entryX=0;entryY=0.5;entryDx=0;entryDy=0;" parent="1" source="239" target="199" edge="1">
                    <mxGeometry relative="1" as="geometry"/>
                </mxCell>
                <mxCell id="239" value="convert string to&amp;nbsp;&lt;br&gt;a long integer" style="rounded=0;whiteSpace=wrap;html=1;" parent="1" vertex="1">
                    <mxGeometry x="1190" y="1298" width="120" height="60" as="geometry"/>
                </mxCell>
                <mxCell id="240" value="&lt;h1 style=&quot;font-size: 20px;&quot;&gt;Validation and Parsing Summary&lt;/h1&gt;&lt;p style=&quot;font-size: 18px;&quot;&gt;&lt;br&gt;&lt;/p&gt;" style="text;html=1;strokeColor=none;fillColor=none;spacing=5;spacingTop=-20;whiteSpace=wrap;overflow=hidden;rounded=0;" parent="1" vertex="1">
                    <mxGeometry x="80" y="1160" width="350" height="40" as="geometry"/>
                </mxCell>
                <mxCell id="241" value="&lt;h1 style=&quot;font-size: 20px;&quot;&gt;&lt;font style=&quot;font-size: 20px;&quot;&gt;Validation and Parsing&lt;/font&gt;&lt;/h1&gt;&lt;p style=&quot;font-size: 20px;&quot;&gt;&lt;br&gt;&lt;/p&gt;" style="text;html=1;strokeColor=none;fillColor=none;spacing=5;spacingTop=-20;whiteSpace=wrap;overflow=hidden;rounded=0;" parent="1" vertex="1">
                    <mxGeometry x="80" y="170" width="286" height="50" as="geometry"/>
                </mxCell>
            </root>
        </mxGraphModel>
    </diagram>
</mxfile>